<svg xmlns:xlink="http://www.w3.org/1999/xlink" version="1.1" class="highcharts-root" style="font-family: &quot;Lucida Grande&quot;, &quot;Lucida Sans Unicode&quot;, Arial, Helvetica, sans-serif; font-size: 12px;" xmlns="http://www.w3.org/2000/svg" width="818.5" height="400" viewBox="0 0 818.5 400" aria-label="Interactive chart" aria-hidden="false"><desc aria-hidden="true">Created with Highcharts 10.3.3</desc><defs aria-hidden="true"><clipPath id="highcharts-gma4lvl-34-"><rect x="0" y="0" width="570" height="305" fill="none"></rect></clipPath><clipPath id="highcharts-gma4lvl-48-"><rect x="0" y="0" width="570" height="305" fill="none"></rect></clipPath></defs><rect fill="none" class="highcharts-background" x="0" y="0" width="818.5" height="400" rx="0" ry="0" aria-hidden="true"></rect><rect fill="none" class="highcharts-plot-background" x="99" y="44" width="570" height="305" aria-hidden="true"></rect><g class="highcharts-label highcharts-print-labels" transform="translate(10,369)" aria-hidden="true"><text x="3" data-z-index="1" y="12" style="color: rgb(34, 34, 34); font-size: 8px; font-style: italic; fill: rgb(34, 34, 34);">Last updated: March 2024<tspan class="highcharts-br" dy="11" x="3">​</tspan>Printed on: February 19</text></g><g class="highcharts-plot-lines-0" data-z-index="0" aria-hidden="true"><path fill="none" class="highcharts-plot-line "></path></g><g class="highcharts-grid highcharts-xaxis-grid" data-z-index="1" aria-hidden="true"><path fill="none" stroke="#e6e6e6" stroke-width="0" stroke-dasharray="none" data-z-index="1" class="highcharts-grid-line" d="M 142.5 44 L 142.5 349" opacity="1"></path><path fill="none" stroke="#e6e6e6" stroke-width="0" stroke-dasharray="none" data-z-index="1" class="highcharts-grid-line" d="M 186.5 44 L 186.5 349" opacity="1"></path><path fill="none" stroke="#e6e6e6" stroke-width="0" stroke-dasharray="none" data-z-index="1" class="highcharts-grid-line" d="M 230.5 44 L 230.5 349" opacity="1"></path><path fill="none" stroke="#e6e6e6" stroke-width="0" stroke-dasharray="none" data-z-index="1" class="highcharts-grid-line" d="M 273.5 44 L 273.5 349" opacity="1"></path><path fill="none" stroke="#e6e6e6" stroke-width="0" stroke-dasharray="none" data-z-index="1" class="highcharts-grid-line" d="M 317.5 44 L 317.5 349" opacity="1"></path><path fill="none" stroke="#e6e6e6" stroke-width="0" stroke-dasharray="none" data-z-index="1" class="highcharts-grid-line" d="M 361.5 44 L 361.5 349" opacity="1"></path><path fill="none" stroke="#e6e6e6" stroke-width="0" stroke-dasharray="none" data-z-index="1" class="highcharts-grid-line" d="M 405.5 44 L 405.5 349" opacity="1"></path><path fill="none" stroke="#e6e6e6" stroke-width="0" stroke-dasharray="none" data-z-index="1" class="highcharts-grid-line" d="M 449.5 44 L 449.5 349" opacity="1"></path><path fill="none" stroke="#e6e6e6" stroke-width="0" stroke-dasharray="none" data-z-index="1" class="highcharts-grid-line" d="M 493.5 44 L 493.5 349" opacity="1"></path><path fill="none" stroke="#e6e6e6" stroke-width="0" stroke-dasharray="none" data-z-index="1" class="highcharts-grid-line" d="M 536.5 44 L 536.5 349" opacity="1"></path><path fill="none" stroke="#e6e6e6" stroke-width="0" stroke-dasharray="none" data-z-index="1" class="highcharts-grid-line" d="M 580.5 44 L 580.5 349" opacity="1"></path><path fill="none" stroke="#e6e6e6" stroke-width="0" stroke-dasharray="none" data-z-index="1" class="highcharts-grid-line" d="M 624.5 44 L 624.5 349" opacity="1"></path><path fill="none" stroke="#e6e6e6" stroke-width="0" stroke-dasharray="none" data-z-index="1" class="highcharts-grid-line" d="M 668.5 44 L 668.5 349" opacity="1"></path><path fill="none" stroke="#e6e6e6" stroke-width="0" stroke-dasharray="none" data-z-index="1" class="highcharts-grid-line" d="M 98.5 44 L 98.5 349" opacity="1"></path></g><g class="highcharts-grid highcharts-yaxis-grid" data-z-index="1" aria-hidden="true"><path fill="none" stroke="#c0c0c0" stroke-width="1" stroke-dasharray="none" data-z-index="1" class="highcharts-grid-line" d="M 99 349.5 L 669 349.5" opacity="1"></path><path fill="none" stroke="#c0c0c0" stroke-width="1" stroke-dasharray="none" data-z-index="1" class="highcharts-grid-line" d="M 99 273.5 L 669 273.5" opacity="1"></path><path fill="none" stroke="#c0c0c0" stroke-width="1" stroke-dasharray="none" data-z-index="1" class="highcharts-grid-line" d="M 99 197.5 L 669 197.5" opacity="1"></path><path fill="none" stroke="#c0c0c0" stroke-width="1" stroke-dasharray="none" data-z-index="1" class="highcharts-grid-line" d="M 99 120.5 L 669 120.5" opacity="1"></path><path fill="none" stroke="#c0c0c0" stroke-width="1" stroke-dasharray="none" data-z-index="1" class="highcharts-grid-line" d="M 99 43.5 L 669 43.5" opacity="1"></path></g><rect fill="none" class="highcharts-plot-border" data-z-index="1" stroke="#cccccc" stroke-width="0" x="99" y="44" width="570" height="305" aria-hidden="true"></rect><g class="highcharts-axis highcharts-xaxis" data-z-index="2" aria-hidden="true"><path fill="none" class="highcharts-tick" stroke="#ccd6eb" stroke-width="1" d="M 142.5 349 L 142.5 359" opacity="1"></path><path fill="none" class="highcharts-tick" stroke="#ccd6eb" stroke-width="1" d="M 186.5 349 L 186.5 359" opacity="1"></path><path fill="none" class="highcharts-tick" stroke="#ccd6eb" stroke-width="1" d="M 230.5 349 L 230.5 359" opacity="1"></path><path fill="none" class="highcharts-tick" stroke="#ccd6eb" stroke-width="1" d="M 273.5 349 L 273.5 359" opacity="1"></path><path fill="none" class="highcharts-tick" stroke="#ccd6eb" stroke-width="1" d="M 317.5 349 L 317.5 359" opacity="1"></path><path fill="none" class="highcharts-tick" stroke="#ccd6eb" stroke-width="1" d="M 361.5 349 L 361.5 359" opacity="1"></path><path fill="none" class="highcharts-tick" stroke="#ccd6eb" stroke-width="1" d="M 405.5 349 L 405.5 359" opacity="1"></path><path fill="none" class="highcharts-tick" stroke="#ccd6eb" stroke-width="1" d="M 449.5 349 L 449.5 359" opacity="1"></path><path fill="none" class="highcharts-tick" stroke="#ccd6eb" stroke-width="1" d="M 493.5 349 L 493.5 359" opacity="1"></path><path fill="none" class="highcharts-tick" stroke="#ccd6eb" stroke-width="1" d="M 536.5 349 L 536.5 359" opacity="1"></path><path fill="none" class="highcharts-tick" stroke="#ccd6eb" stroke-width="1" d="M 580.5 349 L 580.5 359" opacity="1"></path><path fill="none" class="highcharts-tick" stroke="#ccd6eb" stroke-width="1" d="M 624.5 349 L 624.5 359" opacity="1"></path><path fill="none" class="highcharts-tick" stroke="#ccd6eb" stroke-width="1" d="M 669.5 349 L 669.5 359" opacity="1"></path><path fill="none" class="highcharts-tick" stroke="#ccd6eb" stroke-width="1" d="M 98.5 349 L 98.5 359" opacity="1"></path><path fill="none" class="highcharts-axis-line" stroke="#ccd6eb" stroke-width="1" data-z-index="7" d="M 99 349.5 L 669 349.5"></path></g><g class="highcharts-axis highcharts-yaxis" data-z-index="2" aria-hidden="true"><text x="23.734375" data-z-index="7" text-anchor="middle" transform="translate(0,0) rotate(270 23.734375 196.5)" class="highcharts-axis-title" style="color: rgb(0, 0, 0); font-family: Arial; font-weight: bold; font-size: 1em; fill: rgb(0, 0, 0);" y="196.5">Count</text><path fill="none" class="highcharts-axis-line" stroke="#ccd6eb" stroke-width="0" data-z-index="7" d="M 99 44 L 99 349"></path></g><g class="highcharts-series-group" data-z-index="3" aria-hidden="false"><g class="highcharts-series highcharts-series-0 highcharts-line-series highcharts-color-0" data-z-index="0.1" opacity="1" transform="translate(99,44) scale(1 1)" clip-path="url(#highcharts-gma4lvl-48-)" aria-hidden="true"><path fill="none" d="M 21.923076923077 297.26825 L 65.769230769231 282.15245 L 109.61538461538 275.3052 L 153.46153846154 265.4354 L 197.3076923077 252.642175 L 241.15384615385 237.36015 L 285 225.01375000000002 L 328.84615384616 207.020275 L 372.69230769231 174.705525 L 416.53846153846 140.969475 L 460.38461538462 108.4214 L 504.23076923077 74.308675 L 548.07692307693 24.250549999999976" class="highcharts-graph" data-z-index="1" stroke="#2F7ED8" stroke-width="2" stroke-linejoin="round" stroke-linecap="round"></path></g><g class="highcharts-markers highcharts-series-0 highcharts-line-series highcharts-color-0" data-z-index="0.1" opacity="1" transform="translate(99,44) scale(1 1)" clip-path="none" aria-hidden="false" role="region" tabindex="-1" aria-label="EV Charging Ports, line 1 of 2 with 13 data points." style="outline: none;"><path fill="#2F7ED8" d="M 21 301 A 4 4 0 1 1 21.003999999333335 300.9999980000002 Z" stroke="#ffffff" stroke-width="0" opacity="1" class="highcharts-point highcharts-color-0" tabindex="-1" role="img" aria-label="2011, 5,070. EV Charging Ports." style="outline: none;"></path><path fill="#2F7ED8" d="M 65 286 A 4 4 0 1 1 65.00399999933333 285.9999980000002 Z" stroke="#ffffff" stroke-width="0" opacity="1" class="highcharts-point highcharts-color-0" tabindex="-1" role="img" aria-label="2012, 14,982. EV Charging Ports." style="outline: none;"></path><path fill="#2F7ED8" d="M 109 279 A 4 4 0 1 1 109.00399999933333 278.9999980000002 Z" stroke="#ffffff" stroke-width="0" opacity="1" class="highcharts-point highcharts-color-0" tabindex="-1" role="img" aria-label="2013, 19,472. EV Charging Ports." style="outline: none;"></path><path fill="#2F7ED8" d="M 153 269 A 4 4 0 1 1 153.00399999933333 268.9999980000002 Z" stroke="#ffffff" stroke-width="0" opacity="1" class="highcharts-point highcharts-color-0" tabindex="-1" role="img" aria-label="2014, 25,944. EV Charging Ports." style="outline: none;"></path><path fill="#2F7ED8" d="M 197 257 A 4 4 0 1 1 197.00399999933333 256.9999980000002 Z" stroke="#ffffff" stroke-width="0" opacity="1" class="highcharts-point highcharts-color-0" tabindex="-1" role="img" aria-label="2015, 34,333. EV Charging Ports." style="outline: none;"></path><path fill="#2F7ED8" d="M 241 241 A 4 4 0 1 1 241.00399999933333 240.99999800000018 Z" stroke="#ffffff" stroke-width="0" opacity="1" class="highcharts-point highcharts-color-0" tabindex="-1" role="img" aria-label="2016, 44,354. EV Charging Ports." style="outline: none;"></path><path fill="#2F7ED8" d="M 285 229 A 4 4 0 1 1 285.00399999933336 228.99999800000018 Z" stroke="#ffffff" stroke-width="0" opacity="1" class="highcharts-point highcharts-color-0" tabindex="-1" role="img" aria-label="2017, 52,450. EV Charging Ports." style="outline: none;"></path><path fill="#2F7ED8" d="M 328 211 A 4 4 0 1 1 328.00399999933336 210.99999800000018 Z" stroke="#ffffff" stroke-width="0" opacity="1" class="highcharts-point highcharts-color-0" tabindex="-1" role="img" aria-label="2018, 64,249. EV Charging Ports." style="outline: none;"></path><path fill="#2F7ED8" d="M 372 179 A 4 4 0 1 1 372.00399999933336 178.99999800000018 Z" stroke="#ffffff" stroke-width="0" opacity="1" class="highcharts-point highcharts-color-0" tabindex="-1" role="img" aria-label="2019, 85,439. EV Charging Ports." style="outline: none;"></path><path fill="#2F7ED8" d="M 416 145 A 4 4 0 1 1 416.00399999933336 144.99999800000018 Z" stroke="#ffffff" stroke-width="0" opacity="1" class="highcharts-point highcharts-color-0" tabindex="-1" role="img" aria-label="2020, 107,561. EV Charging Ports." style="outline: none;"></path><path fill="#2F7ED8" d="M 460 112 A 4 4 0 1 1 460.00399999933336 111.99999800000016 Z" stroke="#ffffff" stroke-width="0" opacity="1" class="highcharts-point highcharts-color-0" tabindex="-1" role="img" aria-label="2021, 128,904. EV Charging Ports." style="outline: none;"></path><path fill="#2F7ED8" d="M 504 78 A 4 4 0 1 1 504.00399999933336 77.99999800000016 Z" stroke="#ffffff" stroke-width="0" opacity="1" class="highcharts-point highcharts-color-0" tabindex="-1" role="img" aria-label="2022, 151,273. EV Charging Ports." style="outline: none;"></path><path fill="#2F7ED8" d="M 548 28 A 4 4 0 1 1 548.0039999993334 27.99999800000017 Z" stroke="#ffffff" stroke-width="0" opacity="1" class="highcharts-point highcharts-color-0" tabindex="-1" role="img" aria-label="2023, 184,098. EV Charging Ports." style="outline: none;"></path></g><g class="highcharts-series highcharts-series-1 highcharts-line-series highcharts-color-1" data-z-index="0.1" opacity="1" transform="translate(99,44) scale(1 1)" clip-path="url(#highcharts-gma4lvl-48-)" aria-hidden="true"><path fill="none" d="M 21.923076923077 301.7975 L 65.769230769231 295.545 L 109.61538461538 292.6475 L 153.46153846154 288.26007500000003 L 197.3076923077 283.43955 L 241.15384615385 277.83975 L 285 274.553375 L 328.84615384616 270.0836 L 372.69230769231 263.777725 L 416.53846153846 256.4806 L 460.38461538462 228.48770000000002 L 504.23076923077 217.33995 L 548.07692307693 200.575625" class="highcharts-graph" data-z-index="1" stroke="#FABD17" stroke-width="2" stroke-linejoin="round" stroke-linecap="round"></path></g><g class="highcharts-markers highcharts-series-1 highcharts-line-series highcharts-color-1" data-z-index="0.1" opacity="1" transform="translate(99,44) scale(1 1)" clip-path="none" aria-hidden="false" role="region" tabindex="-1" aria-label="Station Locations, line 2 of 2 with 13 data points." style="outline: none;"><path fill="#FABD17" d="M 21 298 L 25 302 L 21 306 L 17 302 Z" stroke="#ffffff" stroke-width="0" opacity="1" class="highcharts-point highcharts-color-1" tabindex="-1" role="img" aria-label="2011, 2,100. Station Locations." style="outline: none;"></path><path fill="#FABD17" d="M 65 292 L 69 296 L 65 300 L 61 296 Z" stroke="#ffffff" stroke-width="0" opacity="1" class="highcharts-point highcharts-color-1" tabindex="-1" role="img" aria-label="2012, 6,200. Station Locations." style="outline: none;"></path><path fill="#FABD17" d="M 109 289 L 113 293 L 109 297 L 105 293 Z" stroke="#ffffff" stroke-width="0" opacity="1" class="highcharts-point highcharts-color-1" tabindex="-1" role="img" aria-label="2013, 8,100. Station Locations." style="outline: none;"></path><path fill="#FABD17" d="M 153 284 L 157 288 L 153 292 L 149 288 Z" stroke="#ffffff" stroke-width="0" opacity="1" class="highcharts-point highcharts-color-1" tabindex="-1" role="img" aria-label="2014, 10,977. Station Locations." style="outline: none;"></path><path fill="#FABD17" d="M 197 279 L 201 283 L 197 287 L 193 283 Z" stroke="#ffffff" stroke-width="0" opacity="1" class="highcharts-point highcharts-color-1" tabindex="-1" role="img" aria-label="2015, 14,138. Station Locations." style="outline: none;"></path><path fill="#FABD17" d="M 241 274 L 245 278 L 241 282 L 237 278 Z" stroke="#ffffff" stroke-width="0" opacity="1" class="highcharts-point highcharts-color-1" tabindex="-1" role="img" aria-label="2016, 17,810. Station Locations." style="outline: none;"></path><path fill="#FABD17" d="M 285 271 L 289 275 L 285 279 L 281 275 Z" stroke="#ffffff" stroke-width="0" opacity="1" class="highcharts-point highcharts-color-1" tabindex="-1" role="img" aria-label="2017, 19,965. Station Locations." style="outline: none;"></path><path fill="#FABD17" d="M 328 266 L 332 270 L 328 274 L 324 270 Z" stroke="#ffffff" stroke-width="0" opacity="1" class="highcharts-point highcharts-color-1" tabindex="-1" role="img" aria-label="2018, 22,896. Station Locations." style="outline: none;"></path><path fill="#FABD17" d="M 372 260 L 376 264 L 372 268 L 368 264 Z" stroke="#ffffff" stroke-width="0" opacity="1" class="highcharts-point highcharts-color-1" tabindex="-1" role="img" aria-label="2019, 27,031. Station Locations." style="outline: none;"></path><path fill="#FABD17" d="M 416 252 L 420 256 L 416 260 L 412 256 Z" stroke="#ffffff" stroke-width="0" opacity="1" class="highcharts-point highcharts-color-1" tabindex="-1" role="img" aria-label="2020, 31,816. Station Locations." style="outline: none;"></path><path fill="#FABD17" d="M 460 224 L 464 228 L 460 232 L 456 228 Z" stroke="#ffffff" stroke-width="0" opacity="1" class="highcharts-point highcharts-color-1" tabindex="-1" role="img" aria-label="2021, 50,172. Station Locations." style="outline: none;"></path><path fill="#FABD17" d="M 504 213 L 508 217 L 504 221 L 500 217 Z" stroke="#ffffff" stroke-width="0" opacity="1" class="highcharts-point highcharts-color-1" tabindex="-1" role="img" aria-label="2022, 57,482. Station Locations." style="outline: none;"></path><path fill="#FABD17" d="M 548 197 L 552 201 L 548 205 L 544 201 Z" stroke="#ffffff" stroke-width="0" opacity="1" class="highcharts-point highcharts-color-1" tabindex="-1" role="img" aria-label="2023, 68,475. Station Locations." style="outline: none;"></path></g></g><text x="409" text-anchor="middle" class="highcharts-title" data-z-index="4" style="color: rgb(0, 0, 0); font-size: 1.385em; font-family: Arial; font-weight: bold; fill: rgb(0, 0, 0);" y="22" aria-hidden="true">U.S. Public and Private Electric Vehicle Charging Infrastructure</text><text x="409" text-anchor="middle" class="highcharts-subtitle" data-z-index="4" style="color: rgb(102, 102, 102); fill: rgb(102, 102, 102);" y="43" aria-hidden="true"></text><text x="10" text-anchor="start" class="highcharts-caption" data-z-index="4" style="color: rgb(102, 102, 102); fill: rgb(102, 102, 102);" y="382" aria-hidden="true"></text><g class="highcharts-legend highcharts-no-tooltip" data-z-index="7" transform="translate(689,70)" aria-hidden="true"><rect fill="none" class="highcharts-legend-box" rx="0" ry="0" stroke="#999999" stroke-width="0" x="0" y="0" width="109" height="65"></rect><g data-z-index="1"><g><g class="highcharts-legend-item highcharts-line-series highcharts-color-0 highcharts-series-0" data-z-index="1" transform="translate(8,3)"><path fill="none" class="highcharts-graph" stroke-width="2" stroke-linecap="round" d="M 1 11 L 15 11" stroke="#2F7ED8"></path><path fill="#2F7ED8" d="M 8 15 A 4 4 0 1 1 8.003999999333336 14.999998000000167 Z" class="highcharts-point" stroke="#ffffff" stroke-width="0" opacity="1"></path><text x="21" text-anchor="start" data-z-index="2" y="15" style="color: rgb(102, 102, 102); cursor: pointer; font-size: 12px; font-weight: bold; font-family: Arial; padding: 2px; line-height: 13px; fill: rgb(102, 102, 102);">EV Charging<tspan dy="13" x="21">​</tspan>Ports</text></g><g class="highcharts-legend-item highcharts-line-series highcharts-color-1 highcharts-series-1" data-z-index="1" transform="translate(8,30)"><path fill="none" class="highcharts-graph" stroke-width="2" stroke-linecap="round" d="M 1 11 L 15 11" stroke="#FABD17"></path><path fill="#FABD17" d="M 8 7 L 12 11 L 8 15 L 4 11 Z" class="highcharts-point" stroke="#ffffff" stroke-width="0" opacity="1"></path><text x="21" y="15" text-anchor="start" data-z-index="2" style="color: rgb(102, 102, 102); cursor: pointer; font-size: 12px; font-weight: bold; font-family: Arial; padding: 2px; line-height: 13px; fill: rgb(102, 102, 102);">Station<tspan dy="13" x="21">​</tspan>Locations</text></g></g></g></g><g class="highcharts-axis-labels highcharts-xaxis-labels" data-z-index="7" aria-hidden="true"><text x="120.92307692307308" text-anchor="middle" transform="translate(0,0)" style="color: rgb(102, 102, 102); cursor: default; font-size: 0.813em; font-family: Arial; fill: rgb(102, 102, 102);" y="369" opacity="1">2011</text><text x="164.76923076923308" text-anchor="middle" transform="translate(0,0)" style="color: rgb(102, 102, 102); cursor: default; font-size: 0.813em; font-family: Arial; fill: rgb(102, 102, 102);" y="369" opacity="1">2012</text><text x="208.61538461538308" text-anchor="middle" transform="translate(0,0)" style="color: rgb(102, 102, 102); cursor: default; font-size: 0.813em; font-family: Arial; fill: rgb(102, 102, 102);" y="369" opacity="1">2013</text><text x="252.46153846154309" text-anchor="middle" transform="translate(0,0)" style="color: rgb(102, 102, 102); cursor: default; font-size: 0.813em; font-family: Arial; fill: rgb(102, 102, 102);" y="369" opacity="1">2014</text><text x="296.3076923076931" text-anchor="middle" transform="translate(0,0)" style="color: rgb(102, 102, 102); cursor: default; font-size: 0.813em; font-family: Arial; fill: rgb(102, 102, 102);" y="369" opacity="1">2015</text><text x="340.15384615385307" text-anchor="middle" transform="translate(0,0)" style="color: rgb(102, 102, 102); cursor: default; font-size: 0.813em; font-family: Arial; fill: rgb(102, 102, 102);" y="369" opacity="1">2016</text><text x="384.00000000000307" text-anchor="middle" transform="translate(0,0)" style="color: rgb(102, 102, 102); cursor: default; font-size: 0.813em; font-family: Arial; fill: rgb(102, 102, 102);" y="369" opacity="1">2017</text><text x="427.8461538461531" text-anchor="middle" transform="translate(0,0)" style="color: rgb(102, 102, 102); cursor: default; font-size: 0.813em; font-family: Arial; fill: rgb(102, 102, 102);" y="369" opacity="1">2018</text><text x="471.6923076923131" text-anchor="middle" transform="translate(0,0)" style="color: rgb(102, 102, 102); cursor: default; font-size: 0.813em; font-family: Arial; fill: rgb(102, 102, 102);" y="369" opacity="1">2019</text><text x="515.5384615384631" text-anchor="middle" transform="translate(0,0)" style="color: rgb(102, 102, 102); cursor: default; font-size: 0.813em; font-family: Arial; fill: rgb(102, 102, 102);" y="369" opacity="1">2020</text><text x="559.3846153846231" text-anchor="middle" transform="translate(0,0)" style="color: rgb(102, 102, 102); cursor: default; font-size: 0.813em; font-family: Arial; fill: rgb(102, 102, 102);" y="369" opacity="1">2021</text><text x="603.2307692307731" text-anchor="middle" transform="translate(0,0)" style="color: rgb(102, 102, 102); cursor: default; font-size: 0.813em; font-family: Arial; fill: rgb(102, 102, 102);" y="369" opacity="1">2022</text><text x="647.0769230769231" text-anchor="middle" transform="translate(0,0)" style="color: rgb(102, 102, 102); cursor: default; font-size: 0.813em; font-family: Arial; fill: rgb(102, 102, 102);" y="369" opacity="1">2023</text></g><g class="highcharts-axis-labels highcharts-yaxis-labels" data-z-index="7" aria-hidden="true"><text x="84" text-anchor="end" transform="translate(0,0)" style="color: rgb(102, 102, 102); cursor: default; font-size: 0.813em; font-family: Arial; fill: rgb(102, 102, 102);" y="354" opacity="1">0</text><text x="84" text-anchor="end" transform="translate(0,0)" style="color: rgb(102, 102, 102); cursor: default; font-size: 0.813em; font-family: Arial; fill: rgb(102, 102, 102);" y="277" opacity="1">50,000</text><text x="84" text-anchor="end" transform="translate(0,0)" style="color: rgb(102, 102, 102); cursor: default; font-size: 0.813em; font-family: Arial; fill: rgb(102, 102, 102);" y="201" opacity="1">100,000</text><text x="84" text-anchor="end" transform="translate(0,0)" style="color: rgb(102, 102, 102); cursor: default; font-size: 0.813em; font-family: Arial; fill: rgb(102, 102, 102);" y="125" opacity="1">150,000</text><text x="84" text-anchor="end" transform="translate(0,0)" style="color: rgb(102, 102, 102); cursor: default; font-size: 0.813em; font-family: Arial; fill: rgb(102, 102, 102);" y="49" opacity="1">200,000</text></g></svg>